<?xml version="1.0" encoding="UTF-8"?>
<!DOCTYPE svg PUBLIC "-//W3C//DTD SVG 1.1//EN" "http://www.w3.org/Graphics/SVG/1.1/DTD/svg11.dtd">
<!-- Creator: CorelDRAW 2017 -->
<svg xmlns="http://www.w3.org/2000/svg" xml:space="preserve" width="91.44mm" height="60.96mm" version="1.1" style="shape-rendering:geometricPrecision; text-rendering:geometricPrecision; image-rendering:optimizeQuality; fill-rule:evenodd; clip-rule:evenodd"
viewBox="0 0 9144 6096"
 xmlns:xlink="http://www.w3.org/1999/xlink">
 <defs>
  <style type="text/css">
    .fil0 {fill:#FEFEFE}
  </style>
 </defs>
 <g id="Camada_x0020_1">
  <metadata id="CorelCorpID_0Corel-Layer"/>
  <g id="_3317147170208">
   <path class="fil0" d="M4572 1033c1015,0 1855,751 1994,1727l-1430 0c-105,-205 -318,-345 -564,-345 -246,0 -459,140 -564,345l-1430 0c140,-976 979,-1727 1994,-1727zm2002 2241c-112,1007 -966,1789 -2002,1789 -1037,0 -1890,-783 -2002,-1789l1410 0c91,238 322,408 592,408 270,0 501,-169 592,-408l1410 0z"/>
   <path class="fil0" d="M4572 2836c117,0 212,95 212,212 0,117 -95,212 -212,212 -117,0 -212,-95 -212,-212 0,-117 95,-212 212,-212zm0 -185c219,0 397,178 397,397 0,219 -178,397 -397,397 -219,0 -397,-178 -397,-397 0,-219 178,-397 397,-397z"/>
  </g>
 </g>
</svg>
